# xmcd
#
# Track frame offsets:
#	150
#	17471
#	37472
#	57761
#	78352
#	95705
#	118424
#	139801
#	153993
#	172462
#	189934
#	207643
#	228546
#	250383
#
# Disc length: 3575 seconds
#
# Revision: 5
# Processed by: cddbd v1.4PL0 Copyright (c) Steve Scherf et al.
# Submitted via: EasyCDDAExtractor 5.0.6
#
DISCID=d00df50e
DTITLE=Aaliyah - I Care 4 U
DYEAR=1900
DGENRE=R&B
TTITLE0=Back And Forth
TTITLE1=Are You That Somebody
TTITLE2=One In A Million
TTITLE3=I Care 4 U
TTITLE4=More Than A Woman
TTITLE5=Don't Know What To Tell  Ya
TTITLE6=Try Again
TTITLE7=All I Need
TTITLE8=Miss You
TTITLE9=Don't Worry
TTITLE10=Come Over - feat. Tank
TTITLE11=Erica Kane
TTITLE12=At Your Best
TTITLE13=Got To Give It Up (Remix)
EXTD=mp3pro by Eclypse
EXTT0=
EXTT1=
EXTT2=
EXTT3=
EXTT4=
EXTT5=
EXTT6=
EXTT7=
EXTT8=
EXTT9=
EXTT10=
EXTT11=
EXTT12=
EXTT13=
PLAYORDER=
